<svg xmlns="http://www.w3.org/2000/svg" version="1.1" xmlns:xlink="http://www.w3.org/1999/xlink" xmlns:svgjs="http://svgjs.dev/svgjs" width="2000" height="1500" viewBox="0 0 2000 1500"><rect width="2000" height="1500" fill="#ffffff"></rect><g transform="matrix(0.75,0,0,0.75,249.090909090909,278.98548387096776)"><svg viewBox="0 0 396 248" data-background-color="#ffffff" preserveAspectRatio="xMidYMid meet" height="1252" width="2000" xmlns="http://www.w3.org/2000/svg" xmlns:xlink="http://www.w3.org/1999/xlink"><g id="tight-bounds" transform="matrix(1,0,0,1,0.2400000000000091,0.4000000000000057)"><svg viewBox="0 0 395.52 247.2" height="247.2" width="395.52"><g><svg></svg></g><g><svg viewBox="0 0 395.52 247.2" height="247.2" width="395.52"><g transform="matrix(1,0,0,1,75.54432,74.52062883475972)"><svg viewBox="0 0 244.43135999999998 98.15874233048056" height="98.15874233048056" width="244.43135999999998"><g><svg viewBox="0 0 244.43135999999998 98.15874233048056" height="98.15874233048056" width="244.43135999999998"><g><svg viewBox="0 0 244.43135999999998 98.15874233048056" height="98.15874233048056" width="244.43135999999998"><g><svg viewBox="0 0 244.43135999999998 98.15874233048056" height="98.15874233048056" width="244.43135999999998"><g id="textblocktransform"><svg viewBox="0 0 244.43135999999998 98.15874233048056" height="98.15874233048056" width="244.43135999999998" id="textblock"><g><svg viewBox="0 0 244.43135999999998 98.15874233048056" height="98.15874233048056" width="244.43135999999998"><g transform="matrix(1,0,0,1,0,0)"><svg width="244.43135999999998" viewBox="1.95 -29.3 74.17 29.79" height="98.15874233048056" data-palette-color="#89939e"><path d="M1.95 0L13.92 0Q13.92-1.07 13.13-1.22L13.13-1.22Q12.89-1.27 12.65-1.27L12.65-1.27 10.06-1.27 10.06-12.65 12.6-15.04 24.17 0 30.96 0Q30.96-1.07 30.18-1.22L30.18-1.22Q29.93-1.27 29.69-1.27L29.69-1.27 28.37-1.27 15.63-17.87 24.32-25.98Q26.12-27.69 27.05-27.93L27.05-27.93Q27.49-28.03 27.98-28.03L27.98-28.03Q29.05-28.03 29.2-28.81L29.2-28.81Q29.25-29.05 29.25-29.3L29.25-29.3 20.46-29.3 20.46-28.03 24.37-28.03 10.06-14.84 10.06-28.03 13.92-28.03 13.92-29.3 1.95-29.3 1.95-28.03 5.86-28.03 5.86-1.27 1.95-1.27 1.95 0ZM43.11-20.02L43.11-20.02Q46.53-20.02 47.65-17.14L47.65-17.14Q48.04-16.21 48.04-15.14L48.04-15.14Q48.04-12.7 45.7-12.16L45.7-12.16Q44.48-11.91 42.23-11.96L42.23-11.96 37.06-12.11Q37.3-17.72 40.72-19.43L40.72-19.43Q41.84-20.02 43.11-20.02ZM51.61-4.69L51.61-4.69 50.39-5.13Q48.68-1.42 44.87-0.93L44.87-0.93Q44.38-0.88 43.94-0.88L43.94-0.88Q38.82-0.88 37.5-6.98L37.5-6.98Q37.11-8.69 37.06-10.74L37.06-10.74 42.92-10.64Q48.87-10.55 50.58-11.77L50.58-11.77Q51.9-12.74 51.9-14.55L51.9-14.55Q51.9-17.87 48.53-19.82L48.53-19.82Q46.14-21.24 43.02-21.24L43.02-21.24Q36.91-21.24 34.27-16.16L34.27-16.16Q32.91-13.53 32.91-10.21L32.91-10.21Q32.91-4.15 37.25-1.22L37.25-1.22Q39.84 0.49 43.16 0.49L43.16 0.49Q48.44 0.49 50.93-3.32L50.93-3.32Q51.32-4 51.61-4.69ZM59.81-19.53L63.23-19.53 63.23-20.75 53.75-20.75 53.75-19.53 55.95-19.53 61.91-3.17Q62.89-0.44 64.06 0L64.06 0Q64.64 0.24 65.52 0.24L65.52 0.24 66.16 0.24 73.04-17.82Q73.63-19.34 74.46-19.48L74.46-19.48Q74.7-19.53 74.9-19.53L74.9-19.53Q75.97-19.53 76.07-20.26L76.07-20.26Q76.12-20.51 76.12-20.75L76.12-20.75 68.6-20.75 68.6-19.53 72.26-19.53 66.06-2.88 59.81-19.53Z" opacity="1" transform="matrix(1,0,0,1,0,0)" fill="#89939e" class="wordmark-text-0" data-fill-palette-color="primary" id="text-0"></path></svg></g></svg></g></svg></g></svg></g><g></g></svg></g></svg></g></svg></g><g><path d="M99.189 51.348A122.216 122.216 0 0 1 296.331 51.348L287.479 51.348A113.364 113.364 0 0 0 108.041 51.348L99.189 51.348M99.189 195.852A122.216 122.216 0 0 0 296.331 195.852L287.479 195.852A113.364 113.364 0 0 1 108.041 195.852L99.189 195.852" fill="#89939e" stroke="transparent" data-fill-palette-color="tertiary"></path></g></svg></g><defs></defs></svg><rect width="395.52" height="247.2" fill="none" stroke="none" visibility="hidden"></rect></g></svg></g></svg>